<?xml version="1.0" standalone="no"?>
<!DOCTYPE svg PUBLIC "-//W3C//DTD SVG 20010904//EN"
 "http://www.w3.org/TR/2001/REC-SVG-20010904/DTD/svg10.dtd">
<svg version="1.0" xmlns="http://www.w3.org/2000/svg"
 width="1200.000000pt" height="1200.000000pt" viewBox="0 0 1200.000000 1200.000000"
 preserveAspectRatio="xMidYMid meet">
<metadata>
Created by potrace 1.15, written by Peter Selinger 2001-2017
</metadata>
<g transform="translate(0.000000,1200.000000) scale(0.100000,-0.100000)"
fill="#000000" stroke="none">
<path d="M0 6000 l0 -6000 6000 0 6000 0 0 6000 0 6000 -6000 0 -6000 0 0
-6000z m1982 1127 c13 -21 9 -61 -22 -209 -63 -307 -140 -711 -140 -734 l0
-25 26 20 c31 24 506 466 814 758 159 150 175 164 212 183 27 15 57 20 113 20
66 0 75 -2 75 -18 0 -16 -97 -113 -315 -314 -38 -35 -169 -156 -289 -269 -121
-112 -244 -226 -273 -253 -70 -64 -70 -82 3 -206 217 -369 494 -864 494 -884
0 -22 -5 -25 -53 -31 -73 -9 -119 11 -152 67 -14 24 -51 88 -82 143 -30 55
-98 174 -151 265 -52 91 -109 190 -125 220 -17 30 -38 66 -47 80 -9 14 -32 53
-51 88 -18 34 -36 62 -40 62 -4 0 -47 -38 -95 -84 -113 -105 -139 -152 -158
-282 -20 -126 -93 -480 -108 -517 -13 -33 -36 -47 -77 -47 -35 0 -71 30 -71
59 0 23 51 287 260 1356 27 138 61 312 76 388 15 75 32 144 38 153 23 31 120
39 138 11z m2226 -12 c95 -32 215 -102 220 -128 5 -25 -46 -96 -73 -103 -14
-3 -48 9 -96 35 -113 61 -181 82 -290 88 -209 12 -393 -70 -490 -220 -64 -99
-65 -197 -1 -291 20 -30 57 -70 82 -89 45 -33 355 -227 365 -227 2 0 38 -23
79 -50 220 -150 289 -330 206 -541 -103 -260 -375 -430 -690 -431 -142 -1
-224 18 -347 77 -89 44 -213 144 -213 173 0 23 72 92 96 92 12 0 42 -17 66
-37 122 -106 242 -155 393 -161 163 -6 301 39 416 138 96 82 159 220 144 313
-23 132 -85 193 -384 372 -300 179 -366 241 -407 381 -22 75 -15 199 15 267
76 174 239 306 436 351 39 8 79 18 90 20 11 3 83 4 160 2 122 -3 151 -7 223
-31z m3137 21 c14 -10 19 -25 18 -53 0 -21 -33 -202 -72 -403 -40 -201 -92
-466 -116 -590 -88 -450 -145 -749 -145 -764 0 -14 40 -16 380 -16 425 0 402
4 393 -72 -10 -75 6 -73 -467 -76 -231 -2 -435 0 -453 3 -19 3 -34 13 -38 24
-5 17 12 115 90 506 13 66 58 296 100 510 172 884 173 887 196 911 31 33 84
42 114 20z m2628 -6 c77 -29 145 -107 133 -154 -6 -26 -62 -66 -90 -66 -10 0
-36 15 -59 33 -55 44 -100 61 -157 60 -84 -1 -158 -57 -196 -149 -14 -33 -58
-233 -66 -298 l-3 -28 143 1 c97 1 148 -2 158 -10 22 -18 18 -92 -7 -115 -18
-16 -40 -19 -163 -22 -77 -2 -146 -8 -153 -13 -13 -11 -26 -68 -78 -344 -20
-104 -65 -341 -101 -525 -36 -184 -87 -447 -114 -585 -26 -137 -51 -270 -55
-295 -12 -80 -38 -126 -79 -140 -48 -15 -84 -6 -92 24 -3 12 26 184 65 382 65
336 127 651 236 1213 25 129 45 245 45 257 0 20 -5 22 -79 25 -44 2 -83 8 -87
12 -14 13 -5 100 11 116 9 10 44 17 99 20 46 3 87 9 91 13 3 3 20 73 36 155
35 181 74 269 150 337 52 46 135 93 192 106 64 15 164 11 220 -10z m-4804 -3
c6 -8 27 -112 46 -233 43 -265 85 -528 165 -1019 33 -203 63 -387 66 -407 3
-21 9 -38 12 -38 11 0 49 64 138 227 21 37 70 127 109 198 40 72 128 231 195
355 67 124 134 245 148 270 38 69 120 218 159 290 20 36 47 85 61 110 14 25
47 86 74 135 26 50 58 98 69 108 27 22 111 23 129 2 13 -16 15 3 -140 -1373
-67 -599 -65 -592 -139 -592 -62 0 -76 18 -74 92 2 50 123 1186 149 1391 3 26
2 47 -3 47 -9 0 -124 -204 -453 -805 -18 -33 -69 -125 -113 -205 -44 -80 -102
-183 -127 -230 -94 -172 -132 -236 -152 -257 -40 -43 -131 -42 -147 0 -5 12
-20 96 -35 187 -158 999 -206 1291 -212 1310 -9 26 -23 -11 -85 -233 -33 -117
-77 -275 -99 -352 -52 -185 -159 -566 -205 -735 -21 -74 -46 -149 -57 -167
-21 -35 -57 -48 -103 -35 -29 8 -30 11 -29 63 1 30 20 117 42 194 22 77 58
205 80 285 85 306 137 494 208 750 41 146 97 348 126 450 28 102 57 195 65
208 11 18 22 22 67 22 32 0 58 -5 65 -13z m5339 -83 c27 -31 29 -90 5 -141
-31 -66 -143 -93 -194 -47 -22 20 -34 73 -25 109 3 13 20 40 37 60 53 59 133
68 177 19z m-108 -479 c15 -18 14 -29 -65 -430 -30 -154 -80 -408 -110 -564
-78 -398 -73 -379 -101 -398 -36 -23 -112 -10 -120 22 -3 13 8 92 25 177 17
84 45 225 62 313 157 821 165 857 190 878 27 22 102 23 119 2z m-1748 -997
c127 -54 187 -206 142 -359 -22 -75 -54 -125 -116 -185 -67 -64 -109 -89 -183
-109 -220 -57 -399 64 -398 268 2 158 93 297 241 368 109 53 217 58 314 17z"/>
</g>
</svg>
