<?xml version="1.0" standalone="no"?>
<!DOCTYPE svg PUBLIC "-//W3C//DTD SVG 20010904//EN"
 "http://www.w3.org/TR/2001/REC-SVG-20010904/DTD/svg10.dtd">
<svg version="1.0" xmlns="http://www.w3.org/2000/svg"
 width="400.000000pt" height="400.000000pt" viewBox="0 0 400.000000 400.000000"
 preserveAspectRatio="xMidYMid meet">
<metadata>
Created by potrace 1.15, written by Peter Selinger 2001-2017
</metadata>
<g transform="translate(0.000000,400.000000) scale(0.100000,-0.100000)"
fill="#000000" stroke="none">
<path d="M0 2000 l0 -2000 2000 0 2000 0 0 2000 0 2000 -2000 0 -2000 0 0
-2000z m3268 895 c152 -85 197 -105 229 -105 49 0 106 19 161 54 41 26 76 26
70 0 -4 -20 -438 -324 -462 -324 -11 0 -114 52 -228 115 -114 63 -214 115
-222 115 -24 0 -27 -29 -24 -285 3 -219 5 -240 20 -243 10 -2 117 55 239 127
122 72 228 131 236 131 46 0 189 -111 267 -208 145 -180 199 -382 151 -566
-42 -160 -175 -325 -364 -450 -81 -54 -444 -256 -459 -256 -7 0 -156 90 -333
200 -177 110 -325 200 -331 200 -17 0 -155 -99 -162 -115 -17 -45 -3 -98 37
-142 26 -29 83 -30 137 -3 l39 20 18 -26 c23 -36 11 -51 -76 -96 -120 -63
-221 -45 -280 48 -59 91 -49 184 27 256 30 29 468 295 514 313 8 3 160 -87
338 -200 179 -113 334 -205 345 -205 24 0 112 70 155 125 62 77 83 132 88 225
5 109 -9 178 -56 269 -37 71 -115 175 -140 185 -7 3 -140 -69 -294 -160 -155
-91 -290 -164 -300 -162 -25 4 -267 190 -268 205 0 7 17 21 39 32 21 11 41 27
45 36 3 9 6 128 6 265 l0 249 -55 31 c-31 18 -54 37 -52 44 6 19 699 405 729
405 17 1 100 -39 216 -104z m-1898 -96 c268 -64 345 -79 386 -76 57 6 148 48
235 109 44 31 62 38 83 32 14 -3 26 -9 26 -13 0 -3 -93 -107 -207 -230 l-206
-223 -54 6 -53 6 0 -349 c0 -218 4 -352 10 -356 5 -3 95 44 200 105 105 61
195 108 200 105 6 -4 10 -107 10 -255 l0 -248 -245 -198 c-142 -115 -259 -203
-278 -208 -62 -16 -294 0 -401 28 -307 80 -546 292 -611 541 -22 84 -20 234 5
329 29 114 73 190 160 276 85 85 197 150 335 193 95 30 306 67 380 67 28 0 55
3 59 7 9 9 -387 102 -437 102 -91 2 -443 -169 -571 -276 -29 -25 -91 -30 -91
-7 0 6 122 118 270 250 414 367 424 376 443 370 9 -3 168 -42 352 -87z m938
-612 c23 -23 42 -50 42 -58 0 -16 -80 -99 -96 -99 -5 0 -32 23 -59 50 l-49 50
49 50 c27 28 54 50 60 50 6 0 30 -19 53 -43z m0 -320 c23 -23 42 -50 42 -58 0
-16 -80 -99 -96 -99 -5 0 -32 23 -59 50 l-49 50 49 50 c27 28 54 50 60 50 6 0
30 -19 53 -43z"/>
<path d="M2905 2164 c-117 -68 -115 -64 -53 -111 29 -22 58 -43 64 -46 16 -9
204 101 204 119 0 16 -97 84 -120 84 -9 0 -51 -21 -95 -46z"/>
<path d="M1102 2350 c-167 -60 -296 -196 -338 -354 -18 -68 -18 -198 1 -271
39 -148 131 -257 279 -331 130 -64 249 -87 426 -82 131 3 137 4 212 40 266
126 219 359 -63 308 -97 -18 -206 -64 -307 -130 -50 -33 -95 -60 -101 -60 -7
0 -12 141 -13 448 -3 511 6 469 -96 432z m-8 -331 l-52 -51 -46 42 c-25 23
-46 50 -46 60 0 10 21 37 46 60 l46 42 52 -51 51 -51 -51 -51z m6 -384 c-24
-25 -49 -45 -54 -45 -14 0 -96 82 -96 96 0 6 21 31 46 54 l46 42 51 -51 51
-51 -44 -45z"/>
</g>
</svg>
