<?xml version="1.0" standalone="no"?>
<!DOCTYPE svg PUBLIC "-//W3C//DTD SVG 20010904//EN"
 "http://www.w3.org/TR/2001/REC-SVG-20010904/DTD/svg10.dtd">
<svg version="1.0" xmlns="http://www.w3.org/2000/svg"
 width="1920.000000pt" height="1920.000000pt" viewBox="0 0 1920.000000 1920.000000"
 preserveAspectRatio="xMidYMid meet">
<metadata>
Created by potrace 1.15, written by Peter Selinger 2001-2017
</metadata>
<g transform="translate(0.000000,1920.000000) scale(0.100000,-0.100000)"
fill="#000000" stroke="none">
<path d="M0 9600 l0 -9600 9600 0 9600 0 0 9600 0 9600 -9600 0 -9600 0 0
-9600z m9781 3909 c125 -38 192 -188 208 -465 9 -149 -2 -791 -19 -1084 -5
-107 -26 -467 -45 -800 -89 -1556 -108 -2044 -108 -2815 -1 -901 20 -1133 168
-1880 66 -332 81 -450 66 -529 -19 -103 -64 -150 -174 -184 -45 -14 -146 -16
-737 -19 -766 -4 -784 -3 -877 61 -145 99 -192 316 -103 476 72 130 161 324
205 444 131 365 244 856 312 1356 26 191 26 625 0 755 -63 319 -200 495 -416
535 -34 6 -427 10 -1058 10 -1119 0 -1091 2 -1233 -68 -54 -26 -96 -58 -151
-112 -141 -139 -212 -302 -244 -560 -76 -613 44 -1336 340 -2059 35 -86 100
-239 144 -340 122 -279 135 -365 68 -437 -61 -65 -67 -65 -854 -62 l-698 3
-60 24 c-76 31 -186 137 -239 234 -114 204 -173 492 -183 892 -8 309 15 588
67 825 52 236 199 701 313 990 95 243 158 382 372 820 203 418 258 541 325
735 125 362 222 837 261 1272 21 235 -8 512 -86 808 -45 174 -92 306 -182 508
-81 183 -103 262 -103 378 0 97 22 170 66 219 67 73 38 71 799 68 678 -3 680
-3 721 -25 54 -29 101 -84 110 -129 17 -92 0 -169 -106 -464 -287 -803 -362
-1240 -269 -1580 46 -170 152 -306 290 -374 151 -74 116 -71 959 -71 821 0
845 1 959 55 113 54 195 151 256 305 25 62 28 82 28 175 -3 314 -186 1005
-435 1643 -83 213 -95 290 -60 369 21 49 48 72 110 94 50 18 1234 20 1293 3z
m4892 -16 c109 -42 188 -117 223 -215 47 -129 13 -852 -48 -1016 -51 -137
-154 -168 -378 -112 -155 39 -244 76 -585 240 -489 235 -659 304 -900 364
-141 35 -239 48 -369 48 -133 0 -211 -13 -318 -52 -144 -53 -295 -176 -351
-286 -83 -165 -86 -417 -7 -622 103 -267 421 -554 928 -838 64 -35 273 -143
463 -239 417 -210 835 -462 1064 -640 185 -144 370 -379 481 -609 139 -290
210 -624 221 -1046 19 -725 -172 -1389 -541 -1880 -135 -180 -360 -384 -541
-492 -259 -154 -599 -276 -912 -327 -234 -38 -372 -43 -1253 -39 -924 4 -883
1 -1018 63 -71 32 -155 114 -182 176 -34 81 -53 264 -54 524 0 236 5 299 50
580 31 193 52 252 103 298 45 40 96 52 178 42 82 -10 168 -41 526 -186 978
-399 1399 -514 1749 -480 446 43 734 262 871 662 59 172 72 394 31 544 -39
145 -123 283 -240 396 -100 95 -153 127 -514 314 -906 468 -1382 749 -1725
1021 -141 112 -453 425 -527 529 -191 270 -270 540 -284 975 -15 447 38 706
221 1069 373 745 1028 1196 1815 1250 63 5 486 8 940 7 823 -1 825 -1 883 -23z"/>
</g>
</svg>
