<?xml version="1.0" standalone="no"?>
<!DOCTYPE svg PUBLIC "-//W3C//DTD SVG 20010904//EN"
 "http://www.w3.org/TR/2001/REC-SVG-20010904/DTD/svg10.dtd">
<svg version="1.0" xmlns="http://www.w3.org/2000/svg"
 width="1200.000000pt" height="1200.000000pt" viewBox="0 0 1200.000000 1200.000000"
 preserveAspectRatio="xMidYMid meet">
<metadata>
Created by potrace 1.15, written by Peter Selinger 2001-2017
</metadata>
<g transform="translate(0.000000,1200.000000) scale(0.100000,-0.100000)"
fill="#000000" stroke="none">
<path d="M6343 8493 l-133 -4 0 -459 0 -460 170 0 170 0 0 -1570 0 -1570 -170
0 -170 0 0 -465 0 -465 1788 2 1787 3 3 735 c2 404 0 826 -4 938 l-6 202 -187
-1 c-102 -1 -255 -4 -339 -8 l-154 -6 -164 -470 c-90 -258 -164 -471 -164
-472 0 -2 -220 -3 -490 -3 l-490 0 0 1575 0 1575 175 0 175 0 0 465 0 465
-832 -2 c-458 -1 -893 -4 -965 -5z"/>
<path d="M2180 8030 l0 -460 170 0 170 0 0 -1575 0 -1575 -170 0 -170 0 0
-460 0 -460 795 0 795 0 1 1058 0 1057 317 -630 317 -630 3 -427 4 -428 809 0
809 0 0 465 0 465 -134 0 -133 0 -482 900 -482 900 199 297 c110 164 312 465
449 668 l249 370 167 3 167 2 0 460 0 460 -855 0 -855 0 0 -460 0 -459 123 -3
124 -3 -396 -731 -396 -732 -6 982 c-3 539 -7 1077 -8 1194 l-1 212 -790 0
-790 0 0 -460z"/>
</g>
</svg>
