<?xml version="1.0" standalone="no"?>
<!DOCTYPE svg PUBLIC "-//W3C//DTD SVG 20010904//EN"
 "http://www.w3.org/TR/2001/REC-SVG-20010904/DTD/svg10.dtd">
<svg version="1.0" xmlns="http://www.w3.org/2000/svg"
 width="400.000000pt" height="400.000000pt" viewBox="0 0 400.000000 400.000000"
 preserveAspectRatio="xMidYMid meet">
<metadata>
Created by potrace 1.15, written by Peter Selinger 2001-2017
</metadata>
<g transform="translate(0.000000,400.000000) scale(0.100000,-0.100000)"
fill="#000000" stroke="none">
<path d="M1785 2840 c-22 -4 -54 -14 -71 -23 -34 -17 -104 -93 -104 -111 0 -6
-8 -24 -17 -41 -13 -23 -17 -56 -17 -145 0 -106 2 -120 27 -172 52 -107 114
-148 222 -148 80 0 121 17 171 72 63 70 86 135 86 241 1 226 -115 353 -297
327z m102 -172 c48 -40 68 -168 37 -234 -31 -64 -93 -91 -145 -63 -50 26 -78
184 -44 249 24 46 65 73 103 66 19 -3 41 -11 49 -18z"/>
<path d="M473 2821 c-52 -32 -68 -66 -68 -141 1 -78 13 -104 89 -183 55 -56
75 -95 61 -117 -5 -8 -33 -11 -79 -8 l-71 3 -3 -77 c-4 -96 4 -102 123 -96 64
3 88 9 114 27 48 34 71 88 71 166 0 79 -21 125 -80 181 -23 22 -51 52 -63 68
-19 26 -19 30 -4 41 11 8 32 10 62 5 59 -9 67 2 63 82 l-3 63 -90 3 c-75 2
-95 -1 -122 -17z"/>
<path d="M863 2828 c-14 -17 -22 -49 -38 -138 -8 -41 -18 -95 -24 -120 -5 -25
-16 -81 -25 -125 -9 -44 -20 -100 -26 -125 -5 -25 -9 -60 -10 -78 l0 -33 62 3
c60 3 63 4 71 33 17 57 21 60 85 63 66 3 63 6 77 -65 4 -18 11 -35 16 -39 6
-3 37 -3 70 1 l61 7 -5 52 c-5 46 -14 97 -46 261 -14 75 -43 226 -48 260 -9
51 -18 55 -118 55 -62 0 -96 -4 -102 -12z"/>
<path d="M1162 2828 c-11 -14 -6 -63 22 -213 55 -291 80 -395 100 -407 19 -13
153 -9 164 5 5 6 15 39 21 72 7 33 16 78 21 100 15 63 39 192 55 290 8 50 17
100 21 113 11 37 -12 52 -77 52 -66 0 -63 4 -79 -105 -32 -214 -43 -258 -54
-224 -3 8 -19 77 -36 154 -17 77 -35 147 -39 155 -11 20 -104 26 -119 8z"/>
<path d="M2142 2828 c-17 -17 -17 -589 0 -606 7 -7 38 -12 70 -12 l58 0 0 151
c0 90 4 148 9 144 5 -3 40 -62 78 -130 37 -69 77 -137 89 -152 20 -25 23 -26
75 -17 l54 9 3 299 c2 212 -1 303 -9 312 -7 9 -33 14 -70 14 l-59 0 0 -150 c0
-116 -3 -148 -12 -144 -7 3 -44 69 -83 147 l-70 142 -60 3 c-38 2 -65 -2 -73
-10z"/>
<path d="M482 2133 c-45 -22 -74 -67 -80 -122 -7 -78 12 -124 82 -199 71 -76
84 -102 61 -126 -12 -12 -27 -14 -63 -9 -82 11 -77 15 -80 -65 -2 -46 2 -79 9
-88 19 -23 163 -19 208 7 58 32 85 80 89 158 5 87 -12 125 -94 208 -79 81 -80
98 -4 98 30 0 61 4 68 8 16 11 16 119 0 135 -18 18 -156 15 -196 -5z"/>
<path d="M842 2138 c-5 -7 -14 -42 -20 -78 -6 -36 -15 -85 -21 -110 -5 -25
-16 -79 -24 -120 -8 -41 -23 -113 -32 -160 -10 -47 -18 -101 -19 -120 l-1 -35
57 -3 c54 -3 58 -1 71 25 8 15 17 40 21 56 6 26 9 27 64 27 66 0 82 -11 82
-55 0 -17 5 -36 12 -43 16 -16 113 -16 126 1 7 9 6 39 -3 102 -17 106 -32 189
-39 213 -3 9 -10 46 -16 82 -23 147 -38 213 -51 221 -22 14 -195 11 -207 -3z"/>
<path d="M1211 2128 c-12 -34 -1 -601 13 -610 19 -13 103 -9 114 5 7 8 13 72
14 156 l3 143 34 -63 c143 -269 128 -249 186 -249 28 0 56 5 63 12 17 17 17
599 0 616 -16 16 -110 16 -126 0 -8 -8 -12 -57 -12 -152 l-1 -141 -77 150 -77
150 -63 3 c-57 3 -63 1 -71 -20z"/>
<path d="M1845 2134 c-96 -50 -155 -166 -155 -307 0 -144 54 -252 149 -302 44
-22 162 -20 210 5 110 56 168 211 142 378 -16 106 -72 191 -147 227 -43 20
-159 20 -199 -1z m160 -167 c59 -59 69 -169 23 -245 -24 -40 -46 -52 -92 -52
-28 0 -40 6 -58 33 -52 70 -61 150 -27 222 37 79 100 96 154 42z"/>
<path d="M2252 2138 c-17 -17 -17 -599 0 -616 15 -15 92 -16 119 -2 17 10 19
23 19 153 l1 142 27 -30 c15 -17 40 -47 56 -68 16 -20 33 -37 38 -37 4 0 29
29 55 65 26 36 50 65 55 65 4 0 8 -65 8 -144 0 -122 2 -145 16 -150 25 -10 71
-7 99 6 l26 12 -3 298 c-3 323 -2 318 -58 318 -41 0 -64 -23 -130 -130 -34
-55 -68 -100 -76 -100 -8 0 -14 5 -14 10 0 14 -97 169 -123 198 -23 25 -94 31
-115 10z"/>
<path d="M2928 2133 c-8 -10 -20 -52 -27 -93 -8 -41 -17 -93 -22 -115 -14 -64
-39 -195 -49 -255 -6 -30 -15 -75 -22 -98 -14 -53 -5 -62 63 -62 52 0 60 7 78
68 l12 42 63 0 c69 0 76 -6 76 -59 0 -39 17 -51 75 -51 80 0 81 2 61 122 -10
56 -22 123 -26 148 -18 88 -41 216 -51 280 -6 36 -15 70 -21 77 -7 9 -41 13
-103 13 -75 0 -95 -3 -107 -17z"/>
<path d="M3222 2142 c-9 -6 -12 -28 -10 -73 l3 -64 55 -5 55 -5 3 -229 c1
-153 6 -234 14 -243 8 -10 30 -13 77 -11 l66 3 5 240 5 240 58 3 58 3 -3 72
-3 72 -185 2 c-102 2 -191 -1 -198 -5z"/>
<path d="M2597 1372 c-10 -10 -17 -26 -17 -35 0 -9 -7 -17 -15 -17 -8 0 -15
-9 -15 -20 0 -11 7 -20 15 -20 12 0 15 -14 15 -65 0 -63 1 -65 25 -65 24 0 25
3 25 60 0 45 4 62 15 66 8 4 15 14 15 24 0 10 -7 20 -15 24 -8 3 -15 10 -15
16 0 5 7 10 15 10 8 0 15 9 15 20 0 26 -40 27 -63 2z"/>
<path d="M440 1317 c-17 -8 -26 -22 -28 -43 -3 -27 2 -33 37 -49 23 -10 41
-24 41 -32 0 -18 -20 -17 -41 3 -10 9 -26 14 -35 10 -15 -6 -15 -9 -1 -29 11
-16 26 -23 60 -25 40 -3 48 0 62 22 22 32 7 60 -40 77 -19 7 -35 19 -35 26 0
18 25 16 40 -2 17 -21 40 -19 40 4 0 37 -58 60 -100 38z"/>
<path d="M610 1323 c-19 -7 -40 -33 -40 -50 0 -18 30 -16 52 4 17 15 20 15 28
3 14 -23 12 -30 -10 -30 -30 0 -69 -21 -75 -41 -4 -10 -1 -28 5 -39 9 -17 19
-20 68 -18 32 1 63 -1 69 -5 19 -12 4 134 -16 155 -18 19 -59 30 -81 21z"/>
<path d="M933 1320 c-29 -12 -43 -40 -43 -87 0 -60 22 -83 79 -83 26 0 52 5
59 12 13 13 16 116 4 135 -7 11 -56 34 -70 32 -4 0 -17 -4 -29 -9z"/>
<path d="M1142 1314 c-12 -8 -22 -10 -22 -5 0 6 -11 11 -25 11 -25 0 -25 -1
-25 -86 l0 -85 28 3 c26 3 27 6 32 68 4 49 9 65 20 65 11 0 16 -16 20 -65 5
-59 7 -65 28 -65 12 0 22 3 22 8 0 4 0 36 0 71 0 88 -27 116 -78 80z"/>
<path d="M1280 1317 c-18 -9 -25 -21 -25 -42 0 -25 7 -34 43 -53 32 -18 41
-27 33 -35 -9 -9 -16 -8 -29 1 -30 22 -43 25 -54 14 -21 -21 20 -52 68 -52 35
0 47 5 60 25 15 23 15 27 0 49 -8 13 -29 27 -46 31 -16 4 -30 13 -30 21 0 18
24 18 40 -1 17 -21 40 -19 40 4 0 37 -59 60 -100 38z"/>
<path d="M1450 1323 c-19 -7 -40 -33 -40 -50 0 -18 30 -16 51 3 19 17 39 11
39 -12 0 -8 -9 -14 -20 -14 -30 0 -69 -21 -75 -41 -4 -10 -1 -28 5 -39 9 -17
19 -20 68 -18 32 1 62 -1 69 -5 14 -9 24 16 12 34 -5 8 -9 34 -9 59 0 51 -6
62 -37 79 -23 12 -39 13 -63 4z"/>
<path d="M1661 1321 c-8 -5 -29 -7 -48 -4 l-33 6 0 -87 0 -87 27 3 c26 3 27 5
25 53 -2 31 2 57 11 69 23 32 37 10 37 -60 l0 -65 28 3 c26 3 27 5 30 70 2 57
0 70 -18 88 -22 22 -37 25 -59 11z"/>
<path d="M1803 1320 c-29 -12 -43 -40 -43 -87 0 -58 22 -83 74 -83 57 0 76 21
76 86 0 58 -6 69 -43 83 -33 13 -35 13 -64 1z"/>
<path d="M2016 1323 c-4 -4 -22 -6 -41 -5 l-35 3 0 -86 c0 -84 0 -85 25 -85
24 0 25 3 25 59 0 37 5 63 13 70 21 17 27 3 27 -66 0 -61 1 -63 25 -63 24 0
25 3 25 59 0 37 5 63 13 70 21 17 27 3 27 -66 l0 -63 30 0 30 0 0 68 c0 55 -4
73 -20 90 -24 26 -39 27 -65 8 -16 -11 -21 -11 -33 0 -15 15 -35 18 -46 7z"/>
<path d="M2240 1317 c-32 -16 -40 -57 -11 -57 11 0 24 7 29 16 10 19 32 11 32
-12 0 -8 -10 -14 -24 -14 -26 0 -76 -35 -76 -54 0 -28 27 -49 61 -47 19 1 50
3 69 4 25 2 34 6 32 17 -2 8 -4 38 -6 67 -1 31 -8 59 -16 67 -22 22 -62 28
-90 13z"/>
</g>
</svg>
